<svg width="161" height="38" viewBox="0 0 161 38" fill="none" xmlns="http://www.w3.org/2000/svg">
<mask id="path-1-inside-1_428_9634" fill="white">
<path fill-rule="evenodd" clip-rule="evenodd" d="M25.2086 2.53802C20.3894 -0.548803 14.0243 0.447596 10.3789 4.85947L30.1964 17.4674C32.4987 18.9321 35.5524 18.2531 37.0171 15.9509C38.4786 13.6536 37.8061 10.607 35.5133 9.13843L25.2086 2.53802ZM23.5992 5.6797C21.8459 4.53653 19.647 4.31475 17.7007 5.0848L32.2149 14.3187C32.8047 14.6939 33.5869 14.52 33.9621 13.9303C34.3343 13.3452 34.1664 12.5695 33.5855 12.1908L23.5992 5.6797Z"/>
</mask>
<path fill-rule="evenodd" clip-rule="evenodd" d="M25.2086 2.53802C20.3894 -0.548803 14.0243 0.447596 10.3789 4.85947L30.1964 17.4674C32.4987 18.9321 35.5524 18.2531 37.0171 15.9509C38.4786 13.6536 37.8061 10.607 35.5133 9.13843L25.2086 2.53802ZM23.5992 5.6797C21.8459 4.53653 19.647 4.31475 17.7007 5.0848L32.2149 14.3187C32.8047 14.6939 33.5869 14.52 33.9621 13.9303C34.3343 13.3452 34.1664 12.5695 33.5855 12.1908L23.5992 5.6797Z" fill="url(#paint0_linear_428_9634)"/>
<path d="M10.3789 4.85947L9.61459 4.22794L8.8995 5.09338L9.84671 5.696L10.3789 4.85947ZM25.2086 2.53802L24.6739 3.37291L25.2086 2.53802ZM30.1964 17.4674L29.6642 18.3039L30.1964 17.4674ZM37.0171 15.9509L36.1805 15.4187V15.4187L37.0171 15.9509ZM35.5133 9.13843L34.9786 9.97331L35.5133 9.13843ZM17.7007 5.0848L17.336 4.16286L15.5286 4.87796L17.1686 5.92132L17.7007 5.0848ZM23.5992 5.6797L24.1407 4.84917L23.5992 5.6797ZM32.2149 14.3187L31.6827 15.1553L32.2149 14.3187ZM33.9621 13.9303L34.7986 14.4625V14.4625L33.9621 13.9303ZM33.5855 12.1908L33.044 13.0213V13.0213L33.5855 12.1908ZM11.1432 5.491C14.4693 1.46561 20.2768 0.55649 24.6739 3.37291L25.7434 1.70314C20.502 -1.6541 13.5793 -0.570412 9.61459 4.22794L11.1432 5.491ZM30.7286 16.6309L10.9111 4.02294L9.84671 5.696L29.6642 18.3039L30.7286 16.6309ZM36.1805 15.4187C35.0098 17.2589 32.5689 17.8016 30.7286 16.6309L29.6642 18.3039C32.4285 20.0625 36.095 19.2473 37.8536 16.4831L36.1805 15.4187ZM34.9786 9.97331C36.8112 11.1472 37.3488 13.5824 36.1805 15.4187L37.8536 16.4831C39.6084 13.7249 38.8009 10.0668 36.0481 8.30354L34.9786 9.97331ZM24.6739 3.37291L34.9786 9.97331L36.0481 8.30354L25.7434 1.70314L24.6739 3.37291ZM18.0655 6.00673C19.7128 5.355 21.5738 5.5427 23.0577 6.51023L24.1407 4.84917C22.118 3.53035 19.5813 3.27451 17.336 4.16286L18.0655 6.00673ZM32.7471 13.4822L18.2329 4.24827L17.1686 5.92132L31.6827 15.1553L32.7471 13.4822ZM33.1256 13.3981C33.0443 13.5258 32.8749 13.5635 32.7471 13.4822L31.6827 15.1553C32.7345 15.8244 34.1295 15.5142 34.7986 14.4625L33.1256 13.3981ZM33.044 13.0213C33.1698 13.1033 33.2062 13.2713 33.1256 13.3981L34.7986 14.4625C35.4625 13.419 35.163 12.0357 34.127 11.3602L33.044 13.0213ZM23.0577 6.51023L33.044 13.0213L34.127 11.3602L24.1407 4.84917L23.0577 6.51023Z" fill="url(#paint1_linear_428_9634)" mask="url(#path-1-inside-1_428_9634)"/>
<mask id="path-3-inside-2_428_9634" fill="white">
<path fill-rule="evenodd" clip-rule="evenodd" d="M12.5811 35.4619C17.4004 38.5487 23.7655 37.5523 27.4109 33.1404L7.59336 20.5325C5.29112 19.0678 2.23742 19.7468 0.772727 22.049C-0.688783 24.3463 -0.0162904 27.3929 2.27645 28.8615L12.5811 35.4619ZM14.2508 32.3839C15.9898 33.5182 18.1742 33.7288 20.0979 32.9475L5.8823 23.9035C5.29266 23.5284 4.51057 23.7023 4.13544 24.2919C3.76332 24.8768 3.93111 25.6523 4.51173 26.031L14.2508 32.3839Z"/>
</mask>
<path fill-rule="evenodd" clip-rule="evenodd" d="M12.5811 35.4619C17.4004 38.5487 23.7655 37.5523 27.4109 33.1404L7.59336 20.5325C5.29112 19.0678 2.23742 19.7468 0.772727 22.049C-0.688783 24.3463 -0.0162904 27.3929 2.27645 28.8615L12.5811 35.4619ZM14.2508 32.3839C15.9898 33.5182 18.1742 33.7288 20.0979 32.9475L5.8823 23.9035C5.29266 23.5284 4.51057 23.7023 4.13544 24.2919C3.76332 24.8768 3.93111 25.6523 4.51173 26.031L14.2508 32.3839Z" fill="url(#paint2_linear_428_9634)"/>
<path d="M27.4109 33.1404L28.1752 33.772L28.8903 32.9065L27.9431 32.3039L27.4109 33.1404ZM12.5811 35.4619L13.1159 34.627L12.5811 35.4619ZM7.59336 20.5325L7.06116 21.369L7.06116 21.369L7.59336 20.5325ZM0.772727 22.049L1.60925 22.5812L0.772727 22.049ZM2.27645 28.8615L1.74169 29.6964L2.27645 28.8615ZM20.0979 32.9475L20.471 33.8661L22.2519 33.1428L20.6301 32.111L20.0979 32.9475ZM14.2508 32.3839L13.7091 33.2143H13.7091L14.2508 32.3839ZM5.8823 23.9035L5.3501 24.7401H5.3501L5.8823 23.9035ZM4.13544 24.2919L3.29891 23.7597L3.29891 23.7597L4.13544 24.2919ZM4.51173 26.031L3.97005 26.8614L4.51173 26.031ZM26.6466 32.5089C23.3205 36.5343 17.513 37.4434 13.1159 34.627L12.0464 36.2968C17.2878 39.654 24.2105 38.5703 28.1752 33.772L26.6466 32.5089ZM7.06116 21.369L26.8787 33.977L27.9431 32.3039L8.12556 19.696L7.06116 21.369ZM1.60925 22.5812C2.78002 20.741 5.22092 20.1983 7.06116 21.369L8.12556 19.696C5.36132 17.9374 1.69482 18.7526 -0.0637985 21.5168L1.60925 22.5812ZM2.81122 28.0266C0.978571 26.8527 0.44103 24.4175 1.60925 22.5812L-0.0637985 21.5168C-1.8186 24.2751 -1.01115 27.9331 1.74169 29.6964L2.81122 28.0266ZM13.1159 34.627L2.81122 28.0266L1.74169 29.6964L12.0464 36.2968L13.1159 34.627ZM19.7248 32.0289C18.1021 32.688 16.2594 32.5103 14.7925 31.5534L13.7091 33.2143C15.7202 34.5261 18.2463 34.7696 20.471 33.8661L19.7248 32.0289ZM5.3501 24.7401L19.5657 33.784L20.6301 32.111L6.4145 23.067L5.3501 24.7401ZM4.97196 24.8241C5.05317 24.6965 5.22246 24.6589 5.3501 24.7401L6.4145 23.067C5.36286 22.398 3.96797 22.7081 3.29891 23.7597L4.97196 24.8241ZM5.05342 25.2006C4.92773 25.1186 4.89141 24.9507 4.97196 24.8241L3.29891 23.7597C2.63524 24.8029 2.93449 26.1859 3.97005 26.8614L5.05342 25.2006ZM14.7925 31.5534L5.05342 25.2006L3.97005 26.8614L13.7091 33.2143L14.7925 31.5534Z" fill="url(#paint3_linear_428_9634)" mask="url(#path-3-inside-2_428_9634)"/>
<mask id="path-5-inside-3_428_9634" fill="white">
<path fill-rule="evenodd" clip-rule="evenodd" d="M25.7952 17.8167L8.95722 6.88184C6.03848 11.3763 7.31583 17.3858 11.8103 20.3046L28.6483 31.2394C31.567 26.745 30.2896 20.7354 25.7952 17.8167ZM24.0176 20.9916L11.216 12.6982C11.2267 14.3531 12.0611 15.8939 13.4412 16.8071L26.4004 25.3822C26.403 23.609 25.5057 21.9557 24.0176 20.9916Z"/>
</mask>
<path fill-rule="evenodd" clip-rule="evenodd" d="M25.7952 17.8167L8.95722 6.88184C6.03848 11.3763 7.31583 17.3858 11.8103 20.3046L28.6483 31.2394C31.567 26.745 30.2896 20.7354 25.7952 17.8167ZM24.0176 20.9916L11.216 12.6982C11.2267 14.3531 12.0611 15.8939 13.4412 16.8071L26.4004 25.3822C26.403 23.609 25.5057 21.9557 24.0176 20.9916Z" fill="url(#paint4_linear_428_9634)"/>
<path d="M8.95722 6.88184L9.49721 6.05032L8.6657 5.51033L8.1257 6.34184L8.95722 6.88184ZM25.7952 17.8167L25.2552 18.6482V18.6482L25.7952 17.8167ZM11.8103 20.3046L11.2703 21.1361L11.8103 20.3046ZM28.6483 31.2394L28.1083 32.0709L28.9398 32.6109L29.4798 31.7794L28.6483 31.2394ZM11.216 12.6982L11.7551 11.8661L10.2127 10.8669L10.2246 12.7046L11.216 12.6982ZM24.0176 20.9916L23.4785 21.8237L24.0176 20.9916ZM13.4412 16.8071L13.9883 15.9802L13.4412 16.8071ZM26.4004 25.3822L25.8533 26.209L27.3892 27.2253L27.3919 25.3837L26.4004 25.3822ZM8.41722 7.71335L25.2552 18.6482L26.3352 16.9852L9.49721 6.05032L8.41722 7.71335ZM12.3502 19.473C8.31506 16.8525 7.16822 11.457 9.78873 7.42183L8.1257 6.34184C4.90873 11.2955 6.3166 17.9191 11.2703 21.1361L12.3502 19.473ZM29.1883 30.4079L12.3502 19.473L11.2703 21.1361L28.1083 32.0709L29.1883 30.4079ZM25.2552 18.6482C29.2904 21.2687 30.4373 26.6642 27.8167 30.6994L29.4798 31.7794C32.6967 26.8257 31.2889 20.2021 26.3352 16.9852L25.2552 18.6482ZM10.6769 13.5304L23.4785 21.8237L24.5567 20.1595L11.7551 11.8661L10.6769 13.5304ZM13.9883 15.9802C12.8838 15.2494 12.216 14.0163 12.2075 12.6919L10.2246 12.7046C10.2374 14.6899 11.2384 16.5384 12.8941 17.6339L13.9883 15.9802ZM26.9475 24.5553L13.9883 15.9802L12.8941 17.6339L25.8533 26.209L26.9475 24.5553ZM23.4785 21.8237C24.6841 22.6047 25.4111 23.9442 25.4089 25.3807L27.3919 25.3837C27.395 23.2739 26.3274 21.3066 24.5567 20.1595L23.4785 21.8237Z" fill="url(#paint5_linear_428_9634)" mask="url(#path-5-inside-3_428_9634)"/>
<path d="M48.7095 21.6992C47.6915 21.6992 46.6957 21.5811 45.722 21.3451C44.763 21.109 43.9885 20.814 43.3983 20.4599L44.6597 17.583C45.2203 17.9224 45.8769 18.1953 46.6293 18.4018C47.3817 18.5936 48.1193 18.6895 48.8422 18.6895C49.5504 18.6895 50.0372 18.6158 50.3028 18.4682C50.5831 18.3207 50.7233 18.1215 50.7233 17.8707C50.7233 17.6347 50.5905 17.465 50.3249 17.3617C50.0741 17.2437 49.7348 17.1552 49.307 17.0962C48.8939 17.0372 48.4365 16.9708 47.9349 16.897C47.4333 16.8233 46.9243 16.7274 46.408 16.6093C45.9064 16.4766 45.4416 16.2848 45.0138 16.034C44.6007 15.7684 44.2688 15.4143 44.018 14.9717C43.7672 14.5291 43.6418 13.9685 43.6418 13.2899C43.6418 12.5227 43.8631 11.8441 44.3057 11.254C44.763 10.6491 45.4269 10.177 46.2973 9.83765C47.1678 9.48358 48.23 9.30654 49.484 9.30654C50.3249 9.30654 51.1732 9.39506 52.0289 9.5721C52.8993 9.73438 53.6296 9.98519 54.2198 10.3245L52.9584 13.1792C52.3682 12.8399 51.7781 12.6112 51.188 12.4932C50.5979 12.3604 50.0372 12.294 49.5061 12.294C48.798 12.294 48.2964 12.3752 48.0013 12.5375C47.721 12.6998 47.5808 12.8989 47.5808 13.135C47.5808 13.371 47.7062 13.5554 47.9571 13.6882C48.2079 13.8062 48.5398 13.9021 48.9529 13.9759C49.3807 14.0349 49.8455 14.1013 50.3471 14.1751C50.8487 14.2341 51.3503 14.33 51.8519 14.4628C52.3682 14.5955 52.833 14.7947 53.246 15.0603C53.6739 15.3111 54.0132 15.6578 54.264 16.1004C54.5148 16.5282 54.6402 17.0814 54.6402 17.7601C54.6402 18.4977 54.4115 19.1616 53.9542 19.7518C53.5116 20.3419 52.8477 20.814 51.9625 21.1681C51.0921 21.5221 50.0077 21.6992 48.7095 21.6992ZM63.777 21.5V19.2649L63.4893 18.7117V14.5955C63.4893 13.9316 63.2828 13.4227 62.8697 13.0686C62.4714 12.6998 61.8296 12.5153 60.9444 12.5153C60.369 12.5153 59.7863 12.6112 59.1962 12.803C58.606 12.9801 58.1044 13.2309 57.6913 13.5554L56.275 10.7007C56.9537 10.2581 57.7651 9.9188 58.7093 9.68275C59.6683 9.43194 60.6198 9.30654 61.564 9.30654C63.5115 9.30654 65.0163 9.75651 66.0785 10.6565C67.1555 11.5416 67.694 12.9358 67.694 14.839V21.5H63.777ZM60.2363 21.6992C59.2773 21.6992 58.4659 21.5369 57.802 21.2123C57.1381 20.8877 56.6291 20.4452 56.275 19.8845C55.9357 19.3239 55.7661 18.6969 55.7661 18.0035C55.7661 17.2659 55.9505 16.6315 56.3193 16.1004C56.7029 15.5545 57.2856 15.1414 58.0676 14.8611C58.8495 14.566 59.8601 14.4185 61.0993 14.4185H63.9319V16.6093H61.6747C60.996 16.6093 60.5166 16.72 60.2363 16.9413C59.9707 17.1626 59.8379 17.4576 59.8379 17.8265C59.8379 18.1953 59.9781 18.4904 60.2584 18.7117C60.5387 18.933 60.9223 19.0436 61.4091 19.0436C61.8665 19.0436 62.2796 18.933 62.6484 18.7117C63.032 18.4756 63.3123 18.1215 63.4893 17.6494L64.0647 19.1985C63.8434 20.0247 63.4082 20.6517 62.759 21.0795C62.1247 21.4926 61.2837 21.6992 60.2363 21.6992ZM78.1598 9.30654C79.0892 9.30654 79.9301 9.49833 80.6825 9.88191C81.4349 10.2507 82.0251 10.8261 82.4529 11.608C82.8955 12.3899 83.1168 13.4005 83.1168 14.6398V21.5H78.9122V15.3258C78.9122 14.4701 78.7351 13.8505 78.3811 13.4669C78.0417 13.0686 77.5623 12.8694 76.9426 12.8694C76.5 12.8694 76.0943 12.9727 75.7255 13.1792C75.3567 13.371 75.069 13.6735 74.8624 14.0866C74.6559 14.4996 74.5526 15.0381 74.5526 15.702V21.5H70.348V9.50571H74.3534V12.9137L73.5789 11.9178C74.0363 11.0474 74.6633 10.3983 75.4599 9.97043C76.2566 9.52784 77.1565 9.30654 78.1598 9.30654ZM93.0816 21.5V19.2649L92.7939 18.7117V14.5955C92.7939 13.9316 92.5873 13.4227 92.1742 13.0686C91.7759 12.6998 91.1341 12.5153 90.249 12.5153C89.6736 12.5153 89.0908 12.6112 88.5007 12.803C87.9106 12.9801 87.409 13.2309 86.9959 13.5554L85.5796 10.7007C86.2582 10.2581 87.0697 9.9188 88.0139 9.68275C88.9728 9.43194 89.9244 9.30654 90.8686 9.30654C92.816 9.30654 94.3208 9.75651 95.383 10.6565C96.46 11.5416 96.9985 12.9358 96.9985 14.839V21.5H93.0816ZM89.5408 21.6992C88.5819 21.6992 87.7704 21.5369 87.1065 21.2123C86.4427 20.8877 85.9337 20.4452 85.5796 19.8845C85.2403 19.3239 85.0706 18.6969 85.0706 18.0035C85.0706 17.2659 85.255 16.6315 85.6239 16.1004C86.0074 15.5545 86.5902 15.1414 87.3721 14.8611C88.154 14.566 89.1646 14.4185 90.4039 14.4185H93.2365V16.6093H90.9792C90.3006 16.6093 89.8211 16.72 89.5408 16.9413C89.2753 17.1626 89.1425 17.4576 89.1425 17.8265C89.1425 18.1953 89.2826 18.4904 89.5629 18.7117C89.8432 18.933 90.2268 19.0436 90.7137 19.0436C91.171 19.0436 91.5841 18.933 91.9529 18.7117C92.3365 18.4756 92.6168 18.1215 92.7939 17.6494L93.3692 19.1985C93.148 20.0247 92.7127 20.6517 92.0636 21.0795C91.4292 21.4926 90.5883 21.6992 89.5408 21.6992ZM110.452 21.6992C109.434 21.6992 108.438 21.5811 107.465 21.3451C106.506 21.109 105.731 20.814 105.141 20.4599L106.402 17.583C106.963 17.9224 107.62 18.1953 108.372 18.4018C109.124 18.5936 109.862 18.6895 110.585 18.6895C111.293 18.6895 111.78 18.6158 112.045 18.4682C112.326 18.3207 112.466 18.1215 112.466 17.8707C112.466 17.6347 112.333 17.465 112.068 17.3617C111.817 17.2437 111.477 17.1552 111.05 17.0962C110.637 17.0372 110.179 16.9708 109.678 16.897C109.176 16.8233 108.667 16.7274 108.151 16.6093C107.649 16.4766 107.184 16.2848 106.756 16.034C106.343 15.7684 106.011 15.4143 105.761 14.9717C105.51 14.5291 105.384 13.9685 105.384 13.2899C105.384 12.5227 105.606 11.8441 106.048 11.254C106.506 10.6491 107.17 10.177 108.04 9.83765C108.91 9.48358 109.973 9.30654 111.227 9.30654C112.068 9.30654 112.916 9.39506 113.772 9.5721C114.642 9.73438 115.372 9.98519 115.962 10.3245L114.701 13.1792C114.111 12.8399 113.521 12.6112 112.931 12.4932C112.341 12.3604 111.78 12.294 111.249 12.294C110.541 12.294 110.039 12.3752 109.744 12.5375C109.464 12.6998 109.324 12.8989 109.324 13.135C109.324 13.371 109.449 13.5554 109.7 13.6882C109.951 13.8062 110.282 13.9021 110.696 13.9759C111.123 14.0349 111.588 14.1013 112.09 14.1751C112.591 14.2341 113.093 14.33 113.595 14.4628C114.111 14.5955 114.576 14.7947 114.989 15.0603C115.417 15.3111 115.756 15.6578 116.007 16.1004C116.258 16.5282 116.383 17.0814 116.383 17.7601C116.383 18.4977 116.154 19.1616 115.697 19.7518C115.254 20.3419 114.59 20.814 113.705 21.1681C112.835 21.5221 111.75 21.6992 110.452 21.6992ZM125.52 21.5V19.2649L125.232 18.7117V14.5955C125.232 13.9316 125.025 13.4227 124.612 13.0686C124.214 12.6998 123.572 12.5153 122.687 12.5153C122.112 12.5153 121.529 12.6112 120.939 12.803C120.349 12.9801 119.847 13.2309 119.434 13.5554L118.018 10.7007C118.696 10.2581 119.508 9.9188 120.452 9.68275C121.411 9.43194 122.363 9.30654 123.307 9.30654C125.254 9.30654 126.759 9.75651 127.821 10.6565C128.898 11.5416 129.437 12.9358 129.437 14.839V21.5H125.52ZM121.979 21.6992C121.02 21.6992 120.209 21.5369 119.545 21.2123C118.881 20.8877 118.372 20.4452 118.018 19.8845C117.678 19.3239 117.509 18.6969 117.509 18.0035C117.509 17.2659 117.693 16.6315 118.062 16.1004C118.446 15.5545 119.028 15.1414 119.81 14.8611C120.592 14.566 121.603 14.4185 122.842 14.4185H125.675V16.6093H123.417C122.739 16.6093 122.259 16.72 121.979 16.9413C121.713 17.1626 121.581 17.4576 121.581 17.8265C121.581 18.1953 121.721 18.4904 122.001 18.7117C122.281 18.933 122.665 19.0436 123.152 19.0436C123.609 19.0436 124.022 18.933 124.391 18.7117C124.775 18.4756 125.055 18.1215 125.232 17.6494L125.807 19.1985C125.586 20.0247 125.151 20.6517 124.502 21.0795C123.867 21.4926 123.026 21.6992 121.979 21.6992ZM139.902 9.30654C140.832 9.30654 141.673 9.49833 142.425 9.88191C143.178 10.2507 143.768 10.8261 144.196 11.608C144.638 12.3899 144.859 13.4005 144.859 14.6398V21.5H140.655V15.3258C140.655 14.4701 140.478 13.8505 140.124 13.4669C139.784 13.0686 139.305 12.8694 138.685 12.8694C138.243 12.8694 137.837 12.9727 137.468 13.1792C137.099 13.371 136.812 13.6735 136.605 14.0866C136.399 14.4996 136.295 15.0381 136.295 15.702V21.5H132.091V9.50571H136.096V12.9137L135.322 11.9178C135.779 11.0474 136.406 10.3983 137.203 9.97043C137.999 9.52784 138.899 9.30654 139.902 9.30654ZM154.824 21.5V19.2649L154.537 18.7117V14.5955C154.537 13.9316 154.33 13.4227 153.917 13.0686C153.519 12.6998 152.877 12.5153 151.992 12.5153C151.416 12.5153 150.834 12.6112 150.243 12.803C149.653 12.9801 149.152 13.2309 148.739 13.5554L147.322 10.7007C148.001 10.2581 148.812 9.9188 149.757 9.68275C150.716 9.43194 151.667 9.30654 152.611 9.30654C154.559 9.30654 156.064 9.75651 157.126 10.6565C158.203 11.5416 158.741 12.9358 158.741 14.839V21.5H154.824ZM151.284 21.6992C150.325 21.6992 149.513 21.5369 148.849 21.2123C148.185 20.8877 147.676 20.4452 147.322 19.8845C146.983 19.3239 146.813 18.6969 146.813 18.0035C146.813 17.2659 146.998 16.6315 147.367 16.1004C147.75 15.5545 148.333 15.1414 149.115 14.8611C149.897 14.566 150.907 14.4185 152.147 14.4185H154.979V16.6093H152.722C152.043 16.6093 151.564 16.72 151.284 16.9413C151.018 17.1626 150.885 17.4576 150.885 17.8265C150.885 18.1953 151.025 18.4904 151.306 18.7117C151.586 18.933 151.97 19.0436 152.456 19.0436C152.914 19.0436 153.327 18.933 153.696 18.7117C154.079 18.4756 154.36 18.1215 154.537 17.6494L155.112 19.1985C154.891 20.0247 154.455 20.6517 153.806 21.0795C153.172 21.4926 152.331 21.6992 151.284 21.6992Z" fill="#047A9A"/>
<path d="M44.9585 35.5249C44.6044 35.5249 44.2725 35.4723 43.9626 35.3672C43.6528 35.2566 43.4177 35.1183 43.2573 34.9523L43.39 34.7365C43.5505 34.8804 43.769 35.0076 44.0456 35.1183C44.3222 35.2289 44.6293 35.2842 44.9668 35.2842C45.4481 35.2842 45.7939 35.2012 46.0041 35.0353C46.2199 34.8693 46.3278 34.6535 46.3278 34.388C46.3278 34.1943 46.2752 34.0422 46.1701 33.9316C46.065 33.8209 45.9267 33.7352 45.7551 33.6743C45.5836 33.6134 45.3928 33.5664 45.1825 33.5332C44.9778 33.4945 44.7704 33.453 44.5601 33.4087C44.3499 33.359 44.159 33.2953 43.9875 33.2179C43.816 33.1349 43.6777 33.0215 43.5726 32.8776C43.4675 32.7338 43.4149 32.5429 43.4149 32.305C43.4149 32.1003 43.4703 31.9122 43.5809 31.7407C43.6971 31.5692 43.8714 31.4309 44.1037 31.3258C44.3361 31.2151 44.6321 31.1598 44.9917 31.1598C45.2572 31.1598 45.5228 31.2013 45.7883 31.2843C46.0594 31.3617 46.2752 31.4669 46.4356 31.5996L46.2946 31.8154C46.1231 31.6771 45.9211 31.5747 45.6888 31.5084C45.4619 31.442 45.2268 31.4088 44.9834 31.4088C44.5352 31.4088 44.2088 31.4945 44.0041 31.666C43.7994 31.8375 43.6971 32.0478 43.6971 32.2967C43.6971 32.4959 43.7496 32.6563 43.8548 32.778C43.9599 32.8942 44.0982 32.9827 44.2697 33.0436C44.4412 33.1045 44.6293 33.1543 44.834 33.193C45.0442 33.2317 45.2517 33.2732 45.4564 33.3175C45.6666 33.3617 45.8575 33.4226 46.029 33.5C46.2005 33.5775 46.3388 33.6854 46.4439 33.8237C46.549 33.962 46.6016 34.1501 46.6016 34.388C46.6016 34.6093 46.538 34.8084 46.4107 34.9855C46.289 35.157 46.1065 35.2898 45.863 35.3838C45.6251 35.4779 45.3236 35.5249 44.9585 35.5249ZM49.5537 35.5249C49.183 35.5249 48.8649 35.4585 48.5993 35.3257C48.3338 35.1874 48.1291 34.9855 47.9852 34.7199C47.8414 34.4488 47.7694 34.1169 47.7694 33.7241V31.193H48.0433V33.7075C48.0433 34.222 48.1761 34.612 48.4416 34.8776C48.7072 35.1432 49.0806 35.2759 49.5619 35.2759C49.905 35.2759 50.2009 35.204 50.4499 35.0602C50.7044 34.9108 50.898 34.7033 51.0308 34.4378C51.1636 34.1722 51.23 33.8652 51.23 33.5166V31.193H51.5038V35.5H51.2383V34.2967L51.2715 34.3714C51.1498 34.7255 50.9395 35.0076 50.6408 35.2178C50.342 35.4225 49.9796 35.5249 49.5537 35.5249ZM54.3836 35.5249C54.0295 35.5249 53.6976 35.4723 53.3877 35.3672C53.0779 35.2566 52.8428 35.1183 52.6824 34.9523L52.8151 34.7365C52.9756 34.8804 53.1941 35.0076 53.4707 35.1183C53.7474 35.2289 54.0544 35.2842 54.3919 35.2842C54.8732 35.2842 55.219 35.2012 55.4292 35.0353C55.645 34.8693 55.7529 34.6535 55.7529 34.388C55.7529 34.1943 55.7003 34.0422 55.5952 33.9316C55.4901 33.8209 55.3518 33.7352 55.1803 33.6743C55.0087 33.6134 54.8179 33.5664 54.6076 33.5332C54.4029 33.4945 54.1955 33.453 53.9853 33.4087C53.775 33.359 53.5841 33.2953 53.4126 33.2179C53.2411 33.1349 53.1028 33.0215 52.9977 32.8776C52.8926 32.7338 52.84 32.5429 52.84 32.305C52.84 32.1003 52.8954 31.9122 53.006 31.7407C53.1222 31.5692 53.2965 31.4309 53.5288 31.3258C53.7612 31.2151 54.0572 31.1598 54.4168 31.1598C54.6823 31.1598 54.9479 31.2013 55.2134 31.2843C55.4845 31.3617 55.7003 31.4669 55.8607 31.5996L55.7197 31.8154C55.5482 31.6771 55.3462 31.5747 55.1139 31.5084C54.887 31.442 54.6519 31.4088 54.4085 31.4088C53.9604 31.4088 53.6339 31.4945 53.4292 31.666C53.2245 31.8375 53.1222 32.0478 53.1222 32.2967C53.1222 32.4959 53.1748 32.6563 53.2799 32.778C53.385 32.8942 53.5233 32.9827 53.6948 33.0436C53.8663 33.1045 54.0544 33.1543 54.2591 33.193C54.4693 33.2317 54.6768 33.2732 54.8815 33.3175C55.0917 33.3617 55.2826 33.4226 55.4541 33.5C55.6256 33.5775 55.7639 33.6854 55.869 33.8237C55.9742 33.962 56.0267 34.1501 56.0267 34.388C56.0267 34.6093 55.9631 34.8084 55.8358 34.9855C55.7141 35.157 55.5316 35.2898 55.2881 35.3838C55.0502 35.4779 54.7487 35.5249 54.3836 35.5249ZM58.4145 35.5249C58.0604 35.5249 57.7893 35.4253 57.6012 35.2261C57.4131 35.027 57.319 34.7587 57.319 34.4212V30.247H57.5929V34.3797C57.5929 34.6729 57.6648 34.897 57.8087 35.0519C57.9525 35.2068 58.1627 35.2842 58.4393 35.2842C58.7215 35.2842 58.9539 35.1985 59.1364 35.027L59.2775 35.2261C59.1724 35.3257 59.0424 35.4004 58.8875 35.4502C58.7326 35.5 58.5749 35.5249 58.4145 35.5249ZM56.5058 31.4337V31.193H59.012V31.4337H56.5058ZM63.2326 35.5V34.4959L63.2244 34.3465V32.7117C63.2244 32.2857 63.1109 31.962 62.8841 31.7407C62.6573 31.5194 62.3281 31.4088 61.8966 31.4088C61.5812 31.4088 61.2935 31.4641 61.0335 31.5747C60.7735 31.6799 60.5494 31.8182 60.3613 31.9897L60.2119 31.7905C60.4166 31.5969 60.6684 31.4447 60.9671 31.3341C61.2659 31.2179 61.5785 31.1598 61.9049 31.1598C62.4194 31.1598 62.8122 31.2926 63.0833 31.5581C63.3599 31.8182 63.4982 32.2027 63.4982 32.7117V35.5H63.2326ZM61.631 35.5249C61.3046 35.5249 61.0252 35.4751 60.7929 35.3755C60.566 35.2759 60.3918 35.1349 60.27 34.9523C60.1483 34.7642 60.0875 34.5512 60.0875 34.3133C60.0875 34.1031 60.1373 33.9094 60.2368 33.7324C60.3364 33.5498 60.4996 33.406 60.7265 33.3009C60.9588 33.1902 61.2686 33.1349 61.6559 33.1349H63.3239V33.359H61.6559C61.1857 33.359 60.8509 33.4475 60.6518 33.6245C60.4581 33.8015 60.3613 34.0256 60.3613 34.2967C60.3613 34.601 60.4747 34.8444 60.7016 35.027C60.9284 35.204 61.2437 35.2925 61.6476 35.2925C62.0459 35.2925 62.3751 35.204 62.6351 35.027C62.8952 34.8444 63.0916 34.5872 63.2244 34.2552L63.3156 34.4378C63.205 34.7642 63.0058 35.027 62.7181 35.2261C62.4304 35.4253 62.0681 35.5249 61.631 35.5249ZM65.2917 35.5V31.193H65.5656V35.5H65.2917ZM65.4245 30.0644C65.3526 30.0644 65.289 30.0367 65.2337 29.9814C65.1783 29.9261 65.1507 29.8652 65.1507 29.7988C65.1507 29.7214 65.1783 29.6578 65.2337 29.608C65.289 29.5526 65.3526 29.525 65.4245 29.525C65.502 29.525 65.5656 29.5526 65.6154 29.608C65.6707 29.6578 65.6984 29.7186 65.6984 29.7905C65.6984 29.8625 65.6707 29.9261 65.6154 29.9814C65.5656 30.0367 65.502 30.0644 65.4245 30.0644ZM69.4401 31.1598C69.7942 31.1598 70.0985 31.229 70.3529 31.3673C70.613 31.5056 70.8149 31.7103 70.9587 31.9814C71.1026 32.2469 71.1745 32.5761 71.1745 32.9689V35.5H70.9007V32.9855C70.9007 32.471 70.7706 32.081 70.5106 31.8154C70.2506 31.5499 69.8855 31.4171 69.4152 31.4171C69.0556 31.4171 68.7458 31.489 68.4857 31.6328C68.2257 31.7767 68.0266 31.9814 67.8882 32.2469C67.7499 32.5125 67.6808 32.8223 67.6808 33.1764V35.5H67.4069V31.193H67.6725V32.4046L67.6393 32.3299C67.7721 31.9703 67.9906 31.6854 68.2949 31.4752C68.6047 31.2649 68.9864 31.1598 69.4401 31.1598ZM75.7049 35.5V34.4959L75.6966 34.3465V32.7117C75.6966 32.2857 75.5832 31.962 75.3564 31.7407C75.1295 31.5194 74.8004 31.4088 74.3688 31.4088C74.0535 31.4088 73.7658 31.4641 73.5058 31.5747C73.2457 31.6799 73.0217 31.8182 72.8336 31.9897L72.6842 31.7905C72.8889 31.5969 73.1406 31.4447 73.4394 31.3341C73.7381 31.2179 74.0507 31.1598 74.3771 31.1598C74.8916 31.1598 75.2844 31.2926 75.5555 31.5581C75.8322 31.8182 75.9705 32.2027 75.9705 32.7117V35.5H75.7049ZM74.1033 35.5249C73.7769 35.5249 73.4975 35.4751 73.2651 35.3755C73.0383 35.2759 72.864 35.1349 72.7423 34.9523C72.6206 34.7642 72.5597 34.5512 72.5597 34.3133C72.5597 34.1031 72.6095 33.9094 72.7091 33.7324C72.8087 33.5498 72.9719 33.406 73.1987 33.3009C73.4311 33.1902 73.7409 33.1349 74.1282 33.1349H75.7962V33.359H74.1282C73.6579 33.359 73.3232 33.4475 73.124 33.6245C72.9304 33.8015 72.8336 34.0256 72.8336 34.2967C72.8336 34.601 72.947 34.8444 73.1738 35.027C73.4007 35.204 73.716 35.2925 74.1199 35.2925C74.5182 35.2925 74.8474 35.204 75.1074 35.027C75.3674 34.8444 75.5638 34.5872 75.6966 34.2552L75.7879 34.4378C75.6772 34.7642 75.4781 35.027 75.1904 35.2261C74.9027 35.4253 74.5403 35.5249 74.1033 35.5249ZM79.8885 35.5249C79.5012 35.5249 79.1526 35.4364 78.8428 35.2593C78.533 35.0768 78.2868 34.8195 78.1043 34.4876C77.9272 34.1556 77.8387 33.7739 77.8387 33.3424C77.8387 32.9053 77.9272 32.5236 78.1043 32.1971C78.2868 31.8707 78.533 31.6162 78.8428 31.4337C79.1526 31.2511 79.5012 31.1598 79.8885 31.1598C80.2868 31.1598 80.6436 31.2539 80.959 31.442C81.2799 31.6301 81.5316 31.8873 81.7142 32.2137C81.9023 32.5346 81.9963 32.9108 81.9963 33.3424C81.9963 33.7684 81.9023 34.1473 81.7142 34.4793C81.5316 34.8057 81.2799 35.0629 80.959 35.251C80.6436 35.4336 80.2868 35.5249 79.8885 35.5249ZM77.764 35.5V29.3424H78.0379V32.6785L77.9549 33.3341L78.0296 33.9896V35.5H77.764ZM79.8802 35.2759C80.2287 35.2759 80.5413 35.1957 80.8179 35.0353C81.1001 34.8693 81.3214 34.6397 81.4818 34.3465C81.6422 34.0533 81.7225 33.7186 81.7225 33.3424C81.7225 32.9606 81.6422 32.6259 81.4818 32.3382C81.3214 32.045 81.1001 31.8182 80.8179 31.6577C80.5413 31.4973 80.2287 31.4171 79.8802 31.4171C79.5261 31.4171 79.2107 31.4973 78.9341 31.6577C78.6575 31.8182 78.439 32.045 78.2785 32.3382C78.1181 32.6259 78.0379 32.9606 78.0379 33.3424C78.0379 33.7186 78.1181 34.0533 78.2785 34.3465C78.439 34.6397 78.6575 34.8693 78.9341 35.0353C79.2107 35.1957 79.5261 35.2759 79.8802 35.2759ZM83.3478 35.5V29.3424H83.6216V35.5H83.3478ZM87.1559 35.5249C86.7299 35.5249 86.3537 35.4336 86.0272 35.251C85.7008 35.0629 85.4436 34.8029 85.2555 34.471C85.0674 34.139 84.9733 33.7628 84.9733 33.3424C84.9733 32.9164 85.0591 32.5402 85.2306 32.2137C85.4076 31.8873 85.6483 31.6301 85.9526 31.442C86.2624 31.2539 86.6109 31.1598 86.9982 31.1598C87.3799 31.1598 87.7229 31.2511 88.0272 31.4337C88.337 31.6162 88.5777 31.8707 88.7492 32.1971C88.9262 32.518 89.0147 32.8887 89.0147 33.3092C89.0147 33.3202 89.0147 33.3341 89.0147 33.3507C89.0147 33.3617 89.0147 33.3728 89.0147 33.3838H85.1559V33.1598H88.8654L88.7575 33.2926C88.7575 32.933 88.68 32.6121 88.5251 32.3299C88.3758 32.0422 88.1683 31.8182 87.9027 31.6577C87.6372 31.4918 87.3357 31.4088 86.9982 31.4088C86.6607 31.4088 86.3592 31.4918 86.0936 31.6577C85.8281 31.8182 85.6178 32.0422 85.4629 32.3299C85.3136 32.6121 85.2389 32.9357 85.2389 33.3009V33.3507C85.2389 33.7269 85.3219 34.0616 85.4878 34.3548C85.6538 34.6425 85.8806 34.8693 86.1683 35.0353C86.456 35.1957 86.7852 35.2759 87.1559 35.2759C87.438 35.2759 87.7036 35.2234 87.9525 35.1183C88.207 35.0131 88.4172 34.8527 88.5832 34.6369L88.7575 34.8195C88.5639 35.0519 88.326 35.2289 88.0438 35.3506C87.7672 35.4668 87.4712 35.5249 87.1559 35.5249ZM93.5022 35.5249C93.1482 35.5249 92.8162 35.4723 92.5064 35.3672C92.1966 35.2566 91.9615 35.1183 91.801 34.9523L91.9338 34.7365C92.0942 34.8804 92.3128 35.0076 92.5894 35.1183C92.866 35.2289 93.1731 35.2842 93.5105 35.2842C93.9919 35.2842 94.3376 35.2012 94.5479 35.0353C94.7636 34.8693 94.8715 34.6535 94.8715 34.388C94.8715 34.1943 94.819 34.0422 94.7138 33.9316C94.6087 33.8209 94.4704 33.7352 94.2989 33.6743C94.1274 33.6134 93.9365 33.5664 93.7263 33.5332C93.5216 33.4945 93.3141 33.453 93.1039 33.4087C92.8937 33.359 92.7028 33.2953 92.5313 33.2179C92.3598 33.1349 92.2215 33.0215 92.1164 32.8776C92.0112 32.7338 91.9587 32.5429 91.9587 32.305C91.9587 32.1003 92.014 31.9122 92.1247 31.7407C92.2408 31.5692 92.4151 31.4309 92.6475 31.3258C92.8798 31.2151 93.1758 31.1598 93.5354 31.1598C93.801 31.1598 94.0665 31.2013 94.3321 31.2843C94.6032 31.3617 94.819 31.4669 94.9794 31.5996L94.8383 31.8154C94.6668 31.6771 94.4649 31.5747 94.2325 31.5084C94.0057 31.442 93.7706 31.4088 93.5271 31.4088C93.079 31.4088 92.7526 31.4945 92.5479 31.666C92.3432 31.8375 92.2408 32.0478 92.2408 32.2967C92.2408 32.4959 92.2934 32.6563 92.3985 32.778C92.5036 32.8942 92.6419 32.9827 92.8134 33.0436C92.985 33.1045 93.1731 33.1543 93.3778 33.193C93.588 33.2317 93.7955 33.2732 94.0002 33.3175C94.2104 33.3617 94.4013 33.4226 94.5728 33.5C94.7443 33.5775 94.8826 33.6854 94.9877 33.8237C95.0928 33.962 95.1454 34.1501 95.1454 34.388C95.1454 34.6093 95.0817 34.8084 94.9545 34.9855C94.8328 35.157 94.6502 35.2898 94.4068 35.3838C94.1689 35.4779 93.8674 35.5249 93.5022 35.5249ZM97.9895 35.5249C97.5857 35.5249 97.2233 35.4336 96.9024 35.251C96.5871 35.0629 96.3353 34.8029 96.1472 34.471C95.9647 34.139 95.8734 33.7628 95.8734 33.3424C95.8734 32.9164 95.9647 32.5402 96.1472 32.2137C96.3353 31.8873 96.5871 31.6301 96.9024 31.442C97.2233 31.2539 97.5857 31.1598 97.9895 31.1598C98.3934 31.1598 98.7558 31.2539 99.0767 31.442C99.3975 31.6301 99.6493 31.8873 99.8318 32.2137C100.014 32.5402 100.106 32.9164 100.106 33.3424C100.106 33.7628 100.014 34.139 99.8318 34.471C99.6493 34.8029 99.3975 35.0629 99.0767 35.251C98.7558 35.4336 98.3934 35.5249 97.9895 35.5249ZM97.9895 35.2759C98.3436 35.2759 98.659 35.1957 98.9356 35.0353C99.2177 34.8693 99.4363 34.6397 99.5912 34.3465C99.7516 34.0533 99.8318 33.7186 99.8318 33.3424C99.8318 32.9606 99.7516 32.6259 99.5912 32.3382C99.4363 32.045 99.2177 31.8182 98.9356 31.6577C98.659 31.4973 98.3436 31.4171 97.9895 31.4171C97.641 31.4171 97.3284 31.4973 97.0518 31.6577C96.7752 31.8182 96.5539 32.045 96.3879 32.3382C96.2275 32.6259 96.1472 32.9606 96.1472 33.3424C96.1472 33.7186 96.2275 34.0533 96.3879 34.3465C96.5539 34.6397 96.7752 34.8693 97.0518 35.0353C97.3284 35.1957 97.641 35.2759 97.9895 35.2759ZM101.46 35.5V29.3424H101.734V35.5H101.46ZM105.31 35.5249C104.939 35.5249 104.621 35.4585 104.356 35.3257C104.09 35.1874 103.885 34.9855 103.742 34.7199C103.598 34.4488 103.526 34.1169 103.526 33.7241V31.193H103.8V33.7075C103.8 34.222 103.933 34.612 104.198 34.8776C104.464 35.1432 104.837 35.2759 105.318 35.2759C105.661 35.2759 105.957 35.204 106.206 35.0602C106.461 34.9108 106.654 34.7033 106.787 34.4378C106.92 34.1722 106.986 33.8652 106.986 33.5166V31.193H107.26V35.5H106.995V34.2967L107.028 34.3714C106.906 34.7255 106.696 35.0076 106.397 35.2178C106.098 35.4225 105.736 35.5249 105.31 35.5249ZM110.273 35.5249C109.919 35.5249 109.648 35.4253 109.46 35.2261C109.271 35.027 109.177 34.7587 109.177 34.4212V30.247H109.451V34.3797C109.451 34.6729 109.523 34.897 109.667 35.0519C109.811 35.2068 110.021 35.2842 110.298 35.2842C110.58 35.2842 110.812 35.1985 110.995 35.027L111.136 35.2261C111.031 35.3257 110.901 35.4004 110.746 35.4502C110.591 35.5 110.433 35.5249 110.273 35.5249ZM108.364 31.4337V31.193H110.87V31.4337H108.364ZM112.352 35.5V31.193H112.626V35.5H112.352ZM112.485 30.0644C112.413 30.0644 112.35 30.0367 112.294 29.9814C112.239 29.9261 112.211 29.8652 112.211 29.7988C112.211 29.7214 112.239 29.6578 112.294 29.608C112.35 29.5526 112.413 29.525 112.485 29.525C112.563 29.525 112.626 29.5526 112.676 29.608C112.731 29.6578 112.759 29.7186 112.759 29.7905C112.759 29.8625 112.731 29.9261 112.676 29.9814C112.626 30.0367 112.563 30.0644 112.485 30.0644ZM116.094 35.5249C115.69 35.5249 115.328 35.4336 115.007 35.251C114.692 35.0629 114.44 34.8029 114.252 34.471C114.069 34.139 113.978 33.7628 113.978 33.3424C113.978 32.9164 114.069 32.5402 114.252 32.2137C114.44 31.8873 114.692 31.6301 115.007 31.442C115.328 31.2539 115.69 31.1598 116.094 31.1598C116.498 31.1598 116.86 31.2539 117.181 31.442C117.502 31.6301 117.754 31.8873 117.936 32.2137C118.119 32.5402 118.21 32.9164 118.21 33.3424C118.21 33.7628 118.119 34.139 117.936 34.471C117.754 34.8029 117.502 35.0629 117.181 35.251C116.86 35.4336 116.498 35.5249 116.094 35.5249ZM116.094 35.2759C116.448 35.2759 116.764 35.1957 117.04 35.0353C117.322 34.8693 117.541 34.6397 117.696 34.3465C117.856 34.0533 117.936 33.7186 117.936 33.3424C117.936 32.9606 117.856 32.6259 117.696 32.3382C117.541 32.045 117.322 31.8182 117.04 31.6577C116.764 31.4973 116.448 31.4171 116.094 31.4171C115.746 31.4171 115.433 31.4973 115.156 31.6577C114.88 31.8182 114.658 32.045 114.493 32.3382C114.332 32.6259 114.252 32.9606 114.252 33.3424C114.252 33.7186 114.332 34.0533 114.493 34.3465C114.658 34.6397 114.88 34.8693 115.156 35.0353C115.433 35.1957 115.746 35.2759 116.094 35.2759ZM121.598 31.1598C121.952 31.1598 122.257 31.229 122.511 31.3673C122.771 31.5056 122.973 31.7103 123.117 31.9814C123.261 32.2469 123.333 32.5761 123.333 32.9689V35.5H123.059V32.9855C123.059 32.471 122.929 32.081 122.669 31.8154C122.409 31.5499 122.044 31.4171 121.573 31.4171C121.214 31.4171 120.904 31.489 120.644 31.6328C120.384 31.7767 120.185 31.9814 120.046 32.2469C119.908 32.5125 119.839 32.8223 119.839 33.1764V35.5H119.565V31.193H119.831V32.4046L119.797 32.3299C119.93 31.9703 120.149 31.6854 120.453 31.4752C120.763 31.2649 121.145 31.1598 121.598 31.1598ZM126.162 35.5249C125.808 35.5249 125.476 35.4723 125.166 35.3672C124.856 35.2566 124.621 35.1183 124.461 34.9523L124.593 34.7365C124.754 34.8804 124.972 35.0076 125.249 35.1183C125.526 35.2289 125.833 35.2842 126.17 35.2842C126.652 35.2842 126.997 35.2012 127.208 35.0353C127.423 34.8693 127.531 34.6535 127.531 34.388C127.531 34.1943 127.479 34.0422 127.373 33.9316C127.268 33.8209 127.13 33.7352 126.959 33.6743C126.787 33.6134 126.596 33.5664 126.386 33.5332C126.181 33.4945 125.974 33.453 125.764 33.4087C125.553 33.359 125.362 33.2953 125.191 33.2179C125.019 33.1349 124.881 33.0215 124.776 32.8776C124.671 32.7338 124.618 32.5429 124.618 32.305C124.618 32.1003 124.674 31.9122 124.784 31.7407C124.901 31.5692 125.075 31.4309 125.307 31.3258C125.539 31.2151 125.835 31.1598 126.195 31.1598C126.461 31.1598 126.726 31.2013 126.992 31.2843C127.263 31.3617 127.479 31.4669 127.639 31.5996L127.498 31.8154C127.326 31.6771 127.125 31.5747 126.892 31.5084C126.665 31.442 126.43 31.4088 126.187 31.4088C125.739 31.4088 125.412 31.4945 125.208 31.666C125.003 31.8375 124.901 32.0478 124.901 32.2967C124.901 32.4959 124.953 32.6563 125.058 32.778C125.163 32.8942 125.302 32.9827 125.473 33.0436C125.645 33.1045 125.833 33.1543 126.037 33.193C126.248 33.2317 126.455 33.2732 126.66 33.3175C126.87 33.3617 127.061 33.4226 127.232 33.5C127.404 33.5775 127.542 33.6854 127.647 33.8237C127.752 33.962 127.805 34.1501 127.805 34.388C127.805 34.6093 127.741 34.8084 127.614 34.9855C127.492 35.157 127.31 35.2898 127.066 35.3838C126.829 35.4779 126.527 35.5249 126.162 35.5249Z" fill="#01947A"/>
<defs>
<linearGradient id="paint0_linear_428_9634" x1="24.0843" y1="0.75" x2="24.0843" y2="18.2402" gradientUnits="userSpaceOnUse">
<stop stop-color="#047A9A"/>
<stop offset="1" stop-color="#009676"/>
</linearGradient>
<linearGradient id="paint1_linear_428_9634" x1="16.8071" y1="0.750001" x2="31.3615" y2="18.2402" gradientUnits="userSpaceOnUse">
<stop stop-color="#047A98"/>
<stop offset="1" stop-color="#009676"/>
</linearGradient>
<linearGradient id="paint2_linear_428_9634" x1="13.7054" y1="19.7598" x2="13.7054" y2="37.2499" gradientUnits="userSpaceOnUse">
<stop stop-color="#047A9A"/>
<stop offset="1" stop-color="#009676"/>
</linearGradient>
<linearGradient id="paint3_linear_428_9634" x1="6.42823" y1="19.7598" x2="20.9826" y2="37.2499" gradientUnits="userSpaceOnUse">
<stop stop-color="#047A98"/>
<stop offset="1" stop-color="#009676"/>
</linearGradient>
<linearGradient id="paint4_linear_428_9634" x1="18.8027" y1="6.88184" x2="18.8027" y2="31.2394" gradientUnits="userSpaceOnUse">
<stop stop-color="#047A9A"/>
<stop offset="1" stop-color="#009676"/>
</linearGradient>
<linearGradient id="paint5_linear_428_9634" x1="12.7432" y1="6.88184" x2="32.2783" y2="20.918" gradientUnits="userSpaceOnUse">
<stop stop-color="#047A98"/>
<stop offset="1" stop-color="#009676"/>
</linearGradient>
</defs>
</svg>
